<?xml version="1.0" encoding="utf-8"?>
<!-- Generator: Adobe Illustrator 27.2.0, SVG Export Plug-In . SVG Version: 6.00 Build 0)  -->
<svg version="1.1" id="Layer_1" xmlns="http://www.w3.org/2000/svg" xmlns:xlink="http://www.w3.org/1999/xlink" x="0px" y="0px"
	 viewBox="0 0 199.6 19.3" style="enable-background:new 0 0 199.6 19.3;" xml:space="preserve">
<style type="text/css">
	.st0{fill-rule:evenodd;clip-rule:evenodd;fill:#9F5BA4;}
	.st1{fill-rule:evenodd;clip-rule:evenodd;fill:#00B9B2;}
	.st2{fill-rule:evenodd;clip-rule:evenodd;fill:#9F5BA4;fill-opacity:0.702;}
	.st3{fill-rule:evenodd;clip-rule:evenodd;fill:#F9A12B;}
	.st4{fill-rule:evenodd;clip-rule:evenodd;fill:#EE4B99;}
	.st5{fill-rule:evenodd;clip-rule:evenodd;fill:#F9A12B;fill-opacity:0.502;}
	.st6{fill-rule:evenodd;clip-rule:evenodd;fill:#5D63AD;}
	.st7{fill-rule:evenodd;clip-rule:evenodd;fill:#3DB8EA;}
	.st8{fill-rule:evenodd;clip-rule:evenodd;fill:#5D63AD;fill-opacity:0.502;}
	.st9{fill-rule:evenodd;clip-rule:evenodd;fill:#818181;}
</style>
<g>
	<path class="st0" d="M22.5,6.2L22.5,6.2c0,3.1-2.6,5.7-5.7,5.7H0.5V0.5h16.2C19.9,0.5,22.5,3,22.5,6.2z"/>
	<path class="st1" d="M22.5,13.3L22.5,13.3c0,3.2-2.6,5.8-5.7,5.8H0.5V7.5h16.2C19.9,7.5,22.5,10.1,22.5,13.3z"/>
	<path class="st2" d="M22.5,6.2L22.5,6.2c0,3.1-2.6,5.7-5.7,5.7H0.5V0.5h16.2C19.9,0.5,22.5,3,22.5,6.2z"/>
	<path class="st3" d="M31.8,19V0.5h6V19H31.8z"/>
	<path class="st4" d="M23.7,6.4V0.3h21.9v6.1H23.7z"/>
	<path class="st4" d="M23.7,19v-6.1h21.9V19H23.7z"/>
	<path class="st5" d="M31.8,18.9V0.3h6v18.6H31.8z"/>
	<path class="st6" d="M46.8,6.2v-6h21.9v6H46.8z"/>
	<path class="st7" d="M68.8,18.9V0.3L47,18.9H68.8z"/>
	<path class="st8" d="M47,6.2v-6h21.7v6H47z"/>
	<path class="st9" d="M81.3,0.5c1.7,0,3,0.2,4,0.6c1,0.4,1.7,0.8,2.2,1.4c0.4,0.5,0.8,1.4,1.2,2.5c0.4,1.1,0.6,2.7,0.6,4.6
		c0,3.1-0.6,5.4-1.7,7c-1.1,1.6-3.4,2.4-6.7,2.4c-2,0-3.6-0.3-4.7-0.9c-1.1-0.6-1.9-1.5-2.5-2.8c-0.5-1.3-0.8-3.1-0.8-5.4
		c0-3,0.6-5.3,1.7-6.9C75.9,1.3,78.1,0.5,81.3,0.5z M81.2,2.8c-2.3,0-3.8,0.6-4.5,1.9c-0.7,1.2-1,2.9-1,5.1c0,2.3,0.3,4,1,5.1
		c0.7,1.1,2.1,1.6,4.2,1.6c1.1,0,2.1-0.1,2.9-0.3c0.8-0.2,1.3-0.6,1.7-1.2c0.3-0.5,0.6-1.2,0.8-2c0.2-0.8,0.3-1.9,0.3-3.3
		c0-1.8-0.2-3.2-0.5-4.2c-0.3-1-0.9-1.7-1.7-2.1C83.6,3,82.5,2.8,81.2,2.8z"/>
	<path class="st9" d="M138.2,0.6c1.1,0,1.9,0.2,2.4,0.5c0.4,0.3,0.8,1.1,1.1,2.4l2.3,10.6c0.1,0.4,0.2,0.7,0.3,0.8
		c0.1,0.1,0.3,0.2,0.7,0.2c0.3,0,0.6-0.1,0.7-0.2c0.1-0.1,0.2-0.4,0.3-0.8l2.5-10.7c0.3-1.2,0.7-2,1.2-2.4c0.5-0.3,1.4-0.5,2.6-0.5
		c1.1,0,2,0.2,2.4,0.5c0.5,0.3,0.8,1,0.9,2.1l1.6,14.9c0,0,0,0.1,0,0.1c0,0.1,0,0.2-0.1,0.2c-0.1,0.1-0.2,0.1-0.3,0.1H156
		c-0.6,0-1-0.1-1.2-0.3c-0.2-0.2-0.4-0.6-0.4-1.2l-1.5-13.2c0-0.4-0.1-0.6-0.3-0.7c-0.1-0.1-0.4-0.2-0.7-0.2s-0.6,0.1-0.7,0.2
		c-0.1,0.1-0.3,0.4-0.3,0.8l-2.5,10.7c-0.2,0.9-0.4,1.5-0.6,1.8c-0.2,0.4-0.6,0.6-1.1,0.8c-0.5,0.1-1.1,0.2-1.8,0.2
		c-0.6,0-1.2-0.1-1.7-0.2c-0.5-0.2-0.9-0.4-1.1-0.8c-0.2-0.4-0.4-0.9-0.6-1.7l-2.3-10.7c-0.1-0.4-0.2-0.7-0.4-0.8
		c-0.2-0.1-0.4-0.2-0.7-0.2c-0.4,0-0.6,0.1-0.8,0.2c-0.1,0.1-0.2,0.5-0.3,1l-1.6,13c-0.1,0.6-0.3,0.9-0.5,1.1
		c-0.2,0.2-0.6,0.3-1.2,0.3h-0.7c-0.2,0-0.3-0.1-0.3-0.4l1.8-14.4c0.1-1,0.3-1.6,0.5-2c0.2-0.4,0.6-0.7,1-0.9
		C136.6,0.7,137.3,0.6,138.2,0.6z"/>
	<path class="st9" d="M175,0.6c4.3,0,6.5,0.1,6.8,0.3c0.2,0.2,0.4,0.6,0.4,1.2c0,1.3-0.2,2.3-0.6,2.9c-0.4,0.6-2.2,2.3-5.3,5.1
		l-2.3,2.1c-0.6,0.5-1.2,1.1-1.9,1.8c-0.7,0.6-1.1,1.1-1.1,1.2c-0.1,0.2-0.1,0.4-0.1,0.6c0,0.2,0,0.3,0.1,0.4c0.1,0,0.6,0.1,1.5,0.1
		h3.1c1.3,0,2.3,0,3.2-0.1c0.8,0,2-0.1,3.4-0.2c0.1,0,0.2,0,0.3,0.1c0.1,0,0.1,0.1,0.1,0.3c0,0.3-0.2,0.6-0.4,1.1
		c-0.3,0.5-0.6,0.8-0.9,0.9c-0.3,0.1-0.9,0.2-1.7,0.3c-0.9,0.1-2.3,0.1-4.3,0.1c-4.7,0-7.1-0.1-7.2-0.3c-0.1-0.2-0.2-0.6-0.2-1.3
		c0-0.6,0.1-1.1,0.2-1.7c0.1-0.6,0.5-1.2,1.3-2c0.7-0.8,2-2.1,4.1-3.9c2-1.8,3.5-3.2,4.4-4.1c0.9-0.9,1.4-1.4,1.5-1.6
		c0.1-0.2,0.1-0.4,0.1-0.5c0-0.1,0-0.2-0.1-0.3C179,3,177.5,3,174.7,3c-1.2,0-2.4,0-3.5,0.1c-1.2,0.1-2,0.1-2.6,0.2
		c-0.1,0-0.2,0-0.3-0.1c-0.1,0-0.1-0.1-0.1-0.3c0-0.2,0.2-0.6,0.5-1c0.3-0.4,0.7-0.8,1.1-1C170.2,0.7,171.9,0.6,175,0.6z"/>
	<path class="st9" d="M99.7,0.6c2.2,0,3.7,0.1,4.5,0.4c0.8,0.3,1.4,0.8,1.8,1.6c0.4,0.8,0.6,1.9,0.6,3.2c0,1.2-0.2,2.3-0.6,3.3
		c-0.4,1-1,1.6-1.8,2c-0.8,0.3-2.1,0.5-3.9,0.5h-3.7c-0.2,0-0.3,0-0.4,0.1c-0.1,0.1-0.1,0.3-0.1,0.5v5.7c0,0.2,0,0.4-0.1,0.5
		c-0.1,0.1-0.2,0.1-0.4,0.1h-1.8c-0.1,0-0.2,0-0.3-0.1c0-0.1-0.1-0.2-0.1-0.3v-17c0-0.2,0.1-0.4,0.4-0.4c0.3,0,1,0,2.2-0.1
		C97.2,0.7,98.4,0.6,99.7,0.6z M97.9,2.9c-0.8,0-1.3,0-1.5,0.1c-0.2,0.1-0.3,0.2-0.3,0.5v5.4c0,0.2,0,0.4,0.1,0.5
		c0.1,0.1,0.2,0.1,0.5,0.1h3.3c1.3,0,2.1-0.1,2.5-0.2c0.4-0.1,0.7-0.5,1-1c0.3-0.5,0.5-1.2,0.5-2.2c0-0.9-0.1-1.6-0.4-2.1
		c-0.3-0.5-0.7-0.8-1.3-0.9c-0.6-0.1-1.4-0.2-2.6-0.2H97.9z"/>
	<path class="st9" d="M192.3,0.6h1.9c2.1,0,3.2,0.1,3.5,0.2c0.3,0.1,0.5,0.4,0.7,0.8c0.2,0.4,0.3,0.8,0.3,1c0,0.1,0,0.2-0.1,0.3
		c-0.1,0.1-0.2,0.1-0.3,0.1c-0.8,0-1.6-0.1-2.6-0.1c-1,0-2,0-2.9,0h-1.8c-1,0-1.6,0-1.8,0.1c-0.2,0.1-0.3,0.3-0.3,0.7v4.1
		c0,0.2,0,0.3,0.1,0.4c0.1,0.1,0.2,0.1,0.4,0.1h8.2c0.2,0,0.4,0.1,0.4,0.4c0,0.2-0.1,0.6-0.3,1c-0.2,0.4-0.5,0.7-0.7,0.8
		c-0.2,0.1-0.6,0.2-1.2,0.2h-6.4c-0.2,0-0.3,0-0.4,0.1c-0.1,0.1-0.1,0.2-0.1,0.5v4.2c0,0.3,0.1,0.5,0.2,0.6c0.1,0.1,0.3,0.2,0.6,0.2
		c0,0,0.3,0,1.1,0c0.8,0,1.4,0,1.9,0c1,0,2,0,2.9,0c0.9,0,2-0.1,3.2-0.1c0.2,0,0.4,0.1,0.4,0.3c0,0.3-0.2,0.7-0.5,1.2
		c-0.3,0.5-0.7,0.8-1.3,0.9c-0.5,0.1-2,0.1-4.5,0.1c-1.2,0-2.3,0-3.3,0c-1,0-2,0-2.8-0.1c-0.1,0-0.2,0-0.4-0.1
		c-0.2-0.1-0.2-0.3-0.2-0.6V1.3c0-0.2,0.1-0.4,0.2-0.4c0.1-0.1,0.2-0.1,0.4-0.1c1.3-0.1,2.2-0.1,3-0.1
		C190.4,0.6,191.3,0.6,192.3,0.6z"/>
	<path class="st9" d="M109.7,0.6h13.4c0.1,0,0.2,0,0.3,0.1c0,0,0.1,0.1,0.1,0.2c0,0.4-0.1,0.8-0.2,1.1c-0.1,0.3-0.3,0.6-0.4,0.6
		s-0.5,0.1-1,0.1h-3.5c-0.7,0-1.1,0.1-1.2,0.3c-0.2,0.2-0.3,0.6-0.3,1.4V18c0,0.3-0.2,0.5-0.5,0.5h-1.9c-0.2,0-0.3-0.1-0.3-0.4V4.4
		c0-0.7-0.1-1.1-0.3-1.3c-0.2-0.2-0.6-0.3-1.3-0.3H108c-0.2,0-0.3-0.1-0.3-0.2c0-0.3,0.1-0.7,0.2-1.1c0.2-0.4,0.3-0.6,0.6-0.7
		C108.7,0.7,109.1,0.6,109.7,0.6z"/>
	<path class="st9" d="M126.8,0.6h1.6c0.1,0,0.2,0,0.3,0.1c0,0.1,0.1,0.2,0.1,0.3v16.7c0,0.5-0.3,0.8-0.8,0.8h-1.6
		c-0.1,0-0.2,0-0.2-0.1c0-0.1-0.1-0.2-0.1-0.3V1.4C126.1,0.9,126.3,0.6,126.8,0.6z"/>
	<path class="st9" d="M161.7,0.6h1.6c0.1,0,0.2,0,0.3,0.1c0,0.1,0.1,0.2,0.1,0.3v16.7c0,0.5-0.3,0.8-0.8,0.8h-1.6
		c-0.1,0-0.2,0-0.2-0.1c0-0.1-0.1-0.2-0.1-0.3V1.4C161,0.9,161.2,0.6,161.7,0.6z"/>
</g>
</svg>
