<?xml version="1.0" encoding="utf-8"?>
<!-- Generator: Adobe Illustrator 27.2.0, SVG Export Plug-In . SVG Version: 6.00 Build 0)  -->
<svg version="1.1" id="Layer_1" xmlns="http://www.w3.org/2000/svg" xmlns:xlink="http://www.w3.org/1999/xlink" x="0px" y="0px"
	 viewBox="0 0 137 42.8" style="enable-background:new 0 0 137 42.8;" xml:space="preserve">
<style type="text/css">
	.st0{fill-rule:evenodd;clip-rule:evenodd;fill:#9F5BA4;}
	.st1{fill-rule:evenodd;clip-rule:evenodd;fill:#00B9B2;}
	.st2{fill-rule:evenodd;clip-rule:evenodd;fill:#9F5BA4;fill-opacity:0.702;}
	.st3{fill-rule:evenodd;clip-rule:evenodd;fill:#F9A12B;}
	.st4{fill-rule:evenodd;clip-rule:evenodd;fill:#EE4B99;}
	.st5{fill-rule:evenodd;clip-rule:evenodd;fill:#F9A12B;fill-opacity:0.502;}
	.st6{fill-rule:evenodd;clip-rule:evenodd;fill:#5D63AD;}
	.st7{fill-rule:evenodd;clip-rule:evenodd;fill:#3DB8EA;}
	.st8{fill-rule:evenodd;clip-rule:evenodd;fill:#5D63AD;fill-opacity:0.502;}
	.st9{fill-rule:evenodd;clip-rule:evenodd;fill:#FFFFFF;}
	.st10{fill-rule:evenodd;clip-rule:evenodd;fill:#010101;}
</style>
<g>
	<path class="st0" d="M24.4,7.2L24.4,7.2c0,3.5-2.8,6.4-6.4,6.4H0.2V0.8h17.9C21.6,0.8,24.4,3.7,24.4,7.2z"/>
	<path class="st1" d="M24.4,15.1L24.4,15.1c0,3.5-2.8,6.4-6.4,6.4H0.2V8.7h17.9C21.6,8.7,24.4,11.6,24.4,15.1z"/>
	<path class="st2" d="M24.4,7.2L24.4,7.2c0,3.5-2.8,6.4-6.4,6.4H0.2V0.8h17.9C21.6,0.8,24.4,3.7,24.4,7.2z"/>
	<path class="st3" d="M34.8,21.5V0.8h6.8v20.7H34.8z"/>
	<path class="st4" d="M26,7.4V0.6h24.5v6.8H26z"/>
	<path class="st4" d="M26,21.5v-6.6h24.5v6.6H26z"/>
	<path class="st5" d="M34.8,21.3V0.6h6.8v20.7H34.8z"/>
	<path class="st6" d="M52,7.4V0.6h24.5v6.8H52z"/>
	<path class="st7" d="M76.4,21.5V0.8L52,21.5H76.4z"/>
	<path class="st8" d="M52,7.4V0.6h24.5v6.8H52z"/>
	<path class="st9" d="M79.7,0.6h4.9v7.8h7.9V0.6h4.9v20.7h-4.9v-8.7h-7.9v8.7h-4.9V0.6z"/>
	<path class="st9" d="M100.6,0.6h4.8v12.3c0,0.5,0.1,1.1,0.2,1.6c0.2,0.5,0.4,0.9,0.7,1.3c0.3,0.4,0.7,0.7,1.2,0.9
		c0.5,0.2,1.1,0.3,1.7,0.3c0.7,0,1.3-0.1,1.7-0.3c0.5-0.2,0.9-0.5,1.2-0.9c0.3-0.4,0.5-0.8,0.6-1.3c0.1-0.5,0.2-1,0.2-1.6V0.6h4.8
		v12.7c0,1.2-0.2,2.3-0.6,3.3c-0.4,1-1,1.9-1.7,2.6c-0.8,0.7-1.7,1.3-2.7,1.7c-1.1,0.4-2.2,0.6-3.5,0.6c-1.3,0-2.5-0.2-3.6-0.6
		c-1.1-0.4-2-1-2.7-1.7c-0.7-0.7-1.3-1.6-1.7-2.6c-0.4-1-0.6-2.1-0.6-3.3V0.6z"/>
	<path class="st9" d="M121.1,0.6h8c0.8,0,1.6,0.1,2.4,0.3c0.8,0.2,1.5,0.4,2.2,0.8c0.7,0.4,1.2,0.9,1.6,1.6c0.4,0.7,0.6,1.5,0.6,2.6
		c0,1.2-0.3,2.1-0.9,2.8c-0.6,0.7-1.4,1.3-2.4,1.6v0.1c0.6,0.1,1.1,0.3,1.6,0.5c0.5,0.3,0.9,0.6,1.3,1c0.4,0.4,0.7,0.9,0.9,1.4
		c0.2,0.5,0.3,1.2,0.3,1.8c0,1.1-0.2,2.1-0.7,2.9c-0.4,0.8-1,1.4-1.7,1.9c-0.7,0.5-1.5,0.8-2.5,1c-0.9,0.2-1.9,0.3-2.8,0.3h-8V0.6z
		 M125.8,4.6v4.3h2.6c0.9,0,1.6-0.2,2.1-0.6c0.5-0.4,0.8-0.9,0.8-1.7c0-0.7-0.3-1.2-0.8-1.5c-0.5-0.3-1.3-0.5-2.3-0.5H125.8z
		 M125.8,12.5v4.7h2.7c0.4,0,0.8,0,1.2-0.1c0.4-0.1,0.8-0.2,1.1-0.4c0.3-0.2,0.6-0.4,0.8-0.7c0.2-0.3,0.3-0.7,0.3-1.3
		c0-0.9-0.3-1.5-0.9-1.8c-0.6-0.3-1.5-0.5-2.5-0.5H125.8z"/>
	<path class="st10" d="M85.8,28.1c0.9,0,1.9,0.2,2.8,0.5c0.9,0.3,1.6,0.8,2.2,1.5l-2.2,2.2c-0.3-0.4-0.7-0.7-1.2-0.9
		C87,31.1,86.5,31,86,31c-0.6,0-1.1,0.1-1.6,0.3c-0.5,0.2-0.9,0.5-1.2,0.9c-0.3,0.4-0.6,0.8-0.8,1.3c-0.2,0.5-0.3,1-0.3,1.6
		c0,0.6,0.1,1.2,0.3,1.7c0.2,0.5,0.4,0.9,0.8,1.3c0.3,0.4,0.7,0.6,1.2,0.8c0.5,0.2,1,0.3,1.5,0.3c0.6,0,1.2-0.1,1.7-0.4
		c0.5-0.3,0.9-0.6,1.1-1L91,40c-0.6,0.7-1.3,1.2-2.2,1.6c-0.9,0.4-1.9,0.6-3,0.6c-1,0-2-0.2-2.9-0.5c-0.9-0.3-1.6-0.8-2.3-1.4
		c-0.6-0.6-1.1-1.4-1.5-2.2c-0.4-0.9-0.5-1.8-0.5-2.9c0-1.1,0.2-2,0.6-2.9c0.4-0.9,0.9-1.6,1.5-2.2c0.7-0.6,1.4-1.1,2.3-1.4
		C83.9,28.3,84.8,28.1,85.8,28.1z"/>
	<path class="st10" d="M40,28.6h3.1l5.6,13.2h-3.6l-1-2.6h-5.2l-1,2.6h-3.5L40,28.6z M41.5,32.1l-1.7,4.5h3.4L41.5,32.1z"/>
	<path class="st10" d="M49.3,28.6h9v2.7h-5.8V34h5.3v2.6h-5.3v5.1h-3.3V28.6z"/>
	<path class="st10" d="M60.6,28.6h5c0.6,0,1.3,0.1,1.9,0.2c0.6,0.1,1.1,0.4,1.6,0.7c0.5,0.3,0.9,0.7,1.1,1.2
		c0.3,0.5,0.4,1.2,0.4,1.9c0,0.9-0.2,1.7-0.7,2.3c-0.5,0.6-1.1,1.1-2,1.3l3.5,5.7h-3.7l-2.9-5.2h-1.1v5.2h-3.1V28.6z M63.7,31.1v3.1
		h1.5c0.3,0,0.5,0,0.8-0.1c0.3,0,0.5-0.1,0.7-0.2c0.2-0.1,0.4-0.3,0.5-0.5c0.1-0.2,0.2-0.5,0.2-0.8c0-0.3-0.1-0.6-0.2-0.8
		c-0.1-0.2-0.3-0.3-0.5-0.5c-0.2-0.1-0.4-0.2-0.7-0.2c-0.3,0-0.5-0.1-0.7-0.1H63.7z"/>
	<path class="st10" d="M72.9,41.8V28.6h3.3v13.2H72.9z"/>
	<path class="st10" d="M96.6,28.6h3.1l5.6,13.2h-3.6l-1.1-2.6h-5.2l-1,2.6H91L96.6,28.6z M98.1,32.1l-1.7,4.5h3.4L98.1,32.1z"/>
</g>
</svg>
