<svg width="4151" height="922" xmlns="http://www.w3.org/2000/svg" xmlns:xlink="http://www.w3.org/1999/xlink" xml:space="preserve" overflow="hidden"><defs><clipPath id="clip0"><rect x="178" y="5060" width="4151" height="922"/></clipPath><linearGradient x1="2200" y1="5982" x2="2200" y2="5060" gradientUnits="userSpaceOnUse" spreadMethod="reflect" id="fill1"><stop offset="0" stop-color="#0D0D0D"/><stop offset="0.0208333" stop-color="#0E0E0E"/><stop offset="0.0416667" stop-color="#101010"/><stop offset="0.0625" stop-color="#121212"/><stop offset="0.0833333" stop-color="#141414"/><stop offset="0.104167" stop-color="#161616"/><stop offset="0.125" stop-color="#171717"/><stop offset="0.145833" stop-color="#191919"/><stop offset="0.166667" stop-color="#1B1B1B"/><stop offset="0.1875" stop-color="#1C1C1C"/><stop offset="0.208333" stop-color="#1E1E1E"/><stop offset="0.229167" stop-color="#1F1F1F"/><stop offset="0.25" stop-color="#212121"/><stop offset="0.270833" stop-color="#222222"/><stop offset="0.291667" stop-color="#242424"/><stop offset="0.3125" stop-color="#252525"/><stop offset="0.333333" stop-color="#272727"/><stop offset="0.354167" stop-color="#282828"/><stop offset="0.375" stop-color="#292929"/><stop offset="0.395833" stop-color="#2A2A2A"/><stop offset="0.416667" stop-color="#2C2C2C"/><stop offset="0.4375" stop-color="#2D2D2D"/><stop offset="0.458333" stop-color="#2E2E2E"/><stop offset="0.479167" stop-color="#2F2F2F"/><stop offset="0.5" stop-color="#303030"/><stop offset="0.520833" stop-color="#313131"/><stop offset="0.541667" stop-color="#323232"/><stop offset="0.5625" stop-color="#333333"/><stop offset="0.583333" stop-color="#343434"/><stop offset="0.604167" stop-color="#353535"/><stop offset="0.625" stop-color="#363636"/><stop offset="0.645833" stop-color="#373737"/><stop offset="0.666667" stop-color="#373737"/><stop offset="0.6875" stop-color="#383838"/><stop offset="0.708333" stop-color="#393939"/><stop offset="0.729167" stop-color="#393939"/><stop offset="0.75" stop-color="#3A3A3A"/><stop offset="0.770833" stop-color="#3A3A3A"/><stop offset="0.791667" stop-color="#3B3B3B"/><stop offset="0.8125" stop-color="#3B3B3B"/><stop offset="0.833333" stop-color="#3C3C3C"/><stop offset="0.854167" stop-color="#3C3C3C"/><stop offset="0.875" stop-color="#3D3D3D"/><stop offset="0.895833" stop-color="#3D3D3D"/><stop offset="0.916667" stop-color="#3D3D3D"/><stop offset="0.9375" stop-color="#3D3D3D"/><stop offset="0.958333" stop-color="#3D3D3D"/><stop offset="0.979167" stop-color="#3D3D3D"/><stop offset="1" stop-color="#3E3E3E"/></linearGradient></defs><g clip-path="url(#clip0)" transform="translate(-178 -5060)"><path d="M178 5131.12C178 5091.84 209.839 5060 249.115 5060L4150.88 5060C4190.16 5060 4222 5091.84 4222 5131.12L4222 5910.88C4222 5950.16 4190.16 5982 4150.88 5982L249.115 5982C209.839 5982 178 5950.16 178 5910.88Z" fill="url(#fill1)" fill-rule="evenodd"/><path d="M4186.16 5251 4265.18 5251 4265.18 5665.86C4265.18 5678.02 4267.71 5685.87 4272.78 5689.42 4277.84 5692.96 4288.48 5694.74 4304.69 5694.74L4329 5694.74 4329 5773 4065.36 5773 4065.36 5694.74 4096.51 5694.74C4111.7 5694.74 4121.45 5692.71 4125.76 5688.66 4130.06 5684.61 4132.22 5676 4132.22 5662.83L4132.22 5449.31C4132.22 5436.65 4130.57 5427.66 4127.28 5422.34 4123.99 5417.02 4117.28 5414.36 4107.15 5414.36 4102.59 5414.36 4094.1 5415.12 4081.69 5416.64 4069.28 5418.16 4061.05 5419.17 4057 5419.68L4057 5341.42C4084.35 5336.35 4109.68 5325.84 4132.98 5309.89 4156.28 5293.93 4174.01 5274.3 4186.16 5251Z" fill="#FFFFFF" fill-rule="evenodd"/><text fill="#1ABAF9" font-family="Arial,Arial_MSFontService,sans-serif" font-weight="700" font-size="105" transform="matrix(1 0 0 1 275.88 5257)">GRAPHIC DESIGN</text><text fill="#FFFFFF" font-family="Arial,Arial_MSFontService,sans-serif" font-weight="400" font-size="69" transform="matrix(1 0 0 1 275.88 5418)">We view design as a blank canvas, with no borders and</text><text fill="#FFFFFF" font-family="Arial,Arial_MSFontService,sans-serif" font-weight="400" font-size="73" transform="matrix(1 0 0 1 275.88 5505)">endless possibilities.</text><text fill="#FFFFFF" font-family="Arial,Arial_MSFontService,sans-serif" font-weight="400" font-size="71" transform="matrix(1 0 0 1 275.88 5684)">Our collaboration with you assists in creating visuals that</text><text fill="#FFFFFF" font-family="Arial,Arial_MSFontService,sans-serif" font-weight="400" font-size="69" transform="matrix(1 0 0 1 275.88 5767)">effectively communicate your brand’s message as seen from</text><text fill="#FFFFFF" font-family="Arial,Arial_MSFontService,sans-serif" font-weight="400" font-size="69" transform="matrix(1 0 0 1 275.88 5858)">the perspective of the customer.</text><text fill="#1ABAF9" font-family="Arial,Arial_MSFontService,sans-serif" font-weight="400" font-size="73" transform="matrix(1 0 0 1 2343.55 5356)">•</text><text fill="#FFFFFF" font-family="Arial,Arial_MSFontService,sans-serif" font-weight="400" font-size="73" transform="matrix(1 0 0 1 2446.95 5359)">Graphic Design</text><text fill="#1ABAF9" font-family="Arial,Arial_MSFontService,sans-serif" font-weight="400" font-size="73" transform="matrix(1 0 0 1 2343.55 5488)">•</text><text fill="#FFFFFF" font-family="Arial,Arial_MSFontService,sans-serif" font-weight="400" font-size="73" transform="matrix(1 0 0 1 2446.95 5491)">Print Design</text><text fill="#1ABAF9" font-family="Arial,Arial_MSFontService,sans-serif" font-weight="400" font-size="73" transform="matrix(1 0 0 1 2343.55 5620)">•</text><text fill="#FFFFFF" font-family="Arial,Arial_MSFontService,sans-serif" font-weight="400" font-size="69" transform="matrix(1 0 0 1 2446.95 5619)">Web Design</text><text fill="#1ABAF9" font-family="Arial,Arial_MSFontService,sans-serif" font-weight="400" font-size="73" transform="matrix(1 0 0 1 2343.55 5752)">•</text><text fill="#FFFFFF" font-family="Arial,Arial_MSFontService,sans-serif" font-weight="400" font-size="73" transform="matrix(1 0 0 1 2446.95 5755)">Video</text><text fill="#FFFFFF" font-family="Arial,Arial_MSFontService,sans-serif" font-weight="400" font-size="73" transform="matrix(1 0 0 1 2642.85 5755)">Production</text></g></svg>